<svg width="32" height="32" viewBox="0 0 32 32" fill="none" xmlns="http://www.w3.org/2000/svg">
<rect width="32" height="32" rx="10" fill="#6A9B96"/>
<path d="M10.4287 9.02H17.2887C18.6087 9.02 19.642 9.34667 20.3887 10C21.1353 10.6533 21.5087 11.6 21.5087 12.84C21.5087 13.4667 21.362 14.04 21.0687 14.56C20.7753 15.0667 20.3753 15.46 19.8687 15.74C20.562 15.9933 21.082 16.38 21.4287 16.9C21.7753 17.4067 21.9487 18.0733 21.9487 18.9C21.9487 19.74 21.7553 20.4733 21.3687 21.1C20.9953 21.7133 20.4753 22.1867 19.8087 22.52C19.1553 22.84 18.4287 23 17.6287 23H10.4287V9.02ZM16.7087 14.7C17.242 14.7 17.662 14.5667 17.9687 14.3C18.2753 14.0333 18.4287 13.6067 18.4287 13.02C18.4287 12.38 18.2753 11.94 17.9687 11.7C17.6753 11.46 17.222 11.34 16.6087 11.34H13.4687V14.7H16.7087ZM16.8887 20.68C17.542 20.68 18.0353 20.5533 18.3687 20.3C18.7153 20.0333 18.8887 19.5733 18.8887 18.92C18.8887 18.2533 18.7087 17.7733 18.3487 17.48C18.002 17.1867 17.482 17.04 16.7887 17.04H13.4687V20.68H16.8887Z" fill="white"/>
</svg>
